<?xml version="1.0" encoding="UTF-8" standalone="no"?>
<!-- Created with Inkscape (http://www.inkscape.org/) -->

<svg
   xmlns:dc="http://purl.org/dc/elements/1.1/"
   xmlns:cc="http://creativecommons.org/ns#"
   xmlns:rdf="http://www.w3.org/1999/02/22-rdf-syntax-ns#"
   xmlns:svg="http://www.w3.org/2000/svg"
   xmlns="http://www.w3.org/2000/svg"
   xmlns:sodipodi="http://sodipodi.sourceforge.net/DTD/sodipodi-0.dtd"
   xmlns:inkscape="http://www.inkscape.org/namespaces/inkscape"
   width="700"
   height="700"
   viewBox="0 0 185.20836 185.20834"
   version="1.1"
   id="svg8"
   inkscape:version="0.92.2 (5c3e80d, 2017-08-06)"
   sodipodi:docname="drawing.svg">
  <defs
     id="defs2">
    <clipPath
       clipPathUnits="userSpaceOnUse"
       id="clipPath4572">
      <g
         id="use4574"
         inkscape:label="Clip" />
    </clipPath>
  </defs>
  <sodipodi:namedview
     id="base"
     pagecolor="#ffffff"
     bordercolor="#666666"
     borderopacity="1.0"
     inkscape:pageopacity="0.0"
     inkscape:pageshadow="2"
     inkscape:zoom="0.7"
     inkscape:cx="234.35881"
     inkscape:cy="304.35938"
     inkscape:document-units="px"
     inkscape:current-layer="layer2"
     showgrid="true"
     showguides="false"
     inkscape:window-width="1360"
     inkscape:window-height="709"
     inkscape:window-x="0"
     inkscape:window-y="37"
     inkscape:window-maximized="0"
     units="px"
     fit-margin-top="0"
     fit-margin-left="0"
     fit-margin-right="0"
     fit-margin-bottom="0">
    <inkscape:grid
       type="xygrid"
       id="grid4526"
       originx="-36.85954"
       originy="-174.36049" />
  </sodipodi:namedview>
  <metadata
     id="metadata5">
    <rdf:RDF>
      <cc:Work
         rdf:about="">
        <dc:format>image/svg+xml</dc:format>
        <dc:type
           rdf:resource="http://purl.org/dc/dcmitype/StillImage" />
        <dc:title></dc:title>
      </cc:Work>
    </rdf:RDF>
  </metadata>
  <g
     inkscape:label="Layer 1"
     inkscape:groupmode="layer"
     id="layer1"
     style="display:inline"
     transform="translate(-18.429764,-24.611442)">
    <g
       inkscape:groupmode="layer"
       id="layer2"
       inkscape:label="Layer 2">
      <path
         style="opacity:1;fill:#ff0000;fill-opacity:0;fill-rule:nonzero;stroke:none;stroke-width:0.14285715;stroke-linecap:butt;stroke-linejoin:miter;stroke-miterlimit:4;stroke-dasharray:none;stroke-opacity:1"
         d="m 307.71853,577.78872 c -6.28637,-5.54509 -12.89095,-16.62986 -17.0853,-28.67503 -1.30139,-3.73728 -2.26424,-6.89697 -2.13967,-7.02154 0.12457,-0.12457 2.89147,-0.69505 6.14867,-1.26772 3.25719,-0.57267 6.08968,-1.20873 6.29442,-1.41346 1.0732,-1.07322 -1.13372,-1.12651 -6.78577,-0.16387 -3.4619,0.58962 -6.34658,1.02501 -6.41038,0.96754 -0.30321,-0.27309 -3.81256,-17.80296 -3.81256,-19.04444 0,-1.33467 0.49911,-1.4172 8.57143,-1.4172 5.23809,0 8.57143,-0.27777 8.57143,-0.71428 0,-0.43809 -3.45238,-0.71429 -8.92857,-0.71429 -4.91072,0 -8.93596,-0.24107 -8.94499,-0.53571 -0.009,-0.29464 -0.6445,-4.71429 -1.41216,-9.82143 -0.76765,-5.10714 -1.40313,-9.79834 -1.41215,-10.42489 -0.0147,-1.01567 1.07753,-0.95463 10.07524,0.56311 9.32998,1.57379 11.60361,1.6761 10.39527,0.46775 -0.36424,-0.36423 -18.75987,-3.77683 -20.54866,-3.81202 -0.23038,-0.004 -0.97493,-3.42089 -1.65455,-7.59191 -2.19455,-13.46863 -5.72615,-23.55293 -10.04654,-28.68743 -3.72631,-4.42846 -6.50261,-5.13553 -23.01748,-5.86209 -40.68542,-1.78992 -62.54436,-10.09605 -74.49703,-28.30795 -6.93294,-10.56351 -10.00838,-25.43003 -10.00838,-48.38002 v -13.03372 l 6.13664,-11.03684 c 7.86009,-14.13649 17.61446,-28.85718 26.80277,-40.44911 8.48513,-10.70479 28.76509,-31.21145 38.48916,-38.91941 29.57568,-23.44369 62.20955,-37.4624 97.14286,-41.73017 13.16996,-1.60897 36.70665,-1.09406 48.92857,1.07039 63.92788,11.32139 118.85503,54.73034 155.8076,123.13481 l 4.70725,8.71379 -0.3729,17.5 c -0.41017,19.24855 -1.35122,25.35769 -5.38495,34.95825 -7.16287,17.04815 -22.59339,27.73769 -47.49032,32.89908 -9.9172,2.05594 -17.22059,2.82754 -33.88243,3.57969 -12.83905,0.57958 -15.61572,0.9042 -17.95896,2.09964 -3.81822,1.94791 -7.48806,6.46491 -9.65972,11.88963 -1.66977,4.17098 -4.62155,17.23978 -5.73384,25.38608 l -0.45227,3.31238 -8.17163,1.28155 c -4.49439,0.70485 -8.56903,1.52716 -9.05475,1.82736 -2.12963,1.31617 0.55976,1.30346 8.41222,-0.0398 4.64069,-0.79383 8.49978,-1.37113 8.57575,-1.28289 0.076,0.0882 -0.45292,4.49973 -1.17533,9.8033 -0.72242,5.30357 -1.32845,10.04464 -1.34674,10.53572 -0.0244,0.65548 -2.0272,0.89285 -7.53327,0.89285 -4.52381,0 -7.5,0.28345 -7.5,0.71429 0,0.42857 2.85714,0.71428 7.14286,0.71428 6.93105,0 7.14287,0.0476 7.14341,1.60715 7.2e-4,2.33041 -2.96862,17.21737 -3.56965,17.89613 -0.27989,0.3161 -2.66244,0.19969 -5.29455,-0.25868 -4.38765,-0.76407 -6.29918,-0.5979 -5.24529,0.45599 0.22818,0.22818 2.65087,0.76097 5.38376,1.18399 l 4.9689,0.76911 -1.755,5.7803 c -3.4532,11.37361 -9.34537,22.24248 -15.82673,29.19445 l -3.18303,3.41415 -2.42241,-6.27129 c -5.52473,-14.3028 -13.05649,-26.72597 -20.12857,-33.20082 -12.86738,-11.78077 -26.50976,-9.41183 -38.8854,6.7523 -5.06173,6.61125 -11.56102,17.8616 -15.12311,26.17827 -1.53095,3.57443 -2.97091,6.49895 -3.19992,6.49895 -0.229,0 -1.41847,-0.88392 -2.64325,-1.96428 z M 429.42086,412.89543 c 5.01807,-2.40541 10.32881,-8.40162 13.80863,-15.5909 1.56272,-3.22858 2.84131,-6.04756 2.84131,-6.2644 0,-0.21685 -0.95911,-0.58609 -2.13135,-0.82054 -1.17225,-0.23445 -3.30291,-1.49992 -4.73481,-2.81216 -6.58007,-6.03018 -1.86478,-16.93606 6.9587,-16.0946 l 2.7646,0.26364 v -5.45709 c 0,-5.83099 -0.74851,-10.76361 -2.59191,-17.08066 l -1.14643,-3.92857 -1.61965,4.96225 c -2.91382,8.92723 -6.59492,9.82532 -10.39181,2.53533 -2.18402,-4.19331 -2.83316,-15.74529 -1.19819,-21.32271 l 1.06506,-3.63327 -2.51776,-1.48552 c -8.77032,-5.17461 -19.46824,-2.49242 -26.73727,6.7036 -19.87166,25.13955 -11.6508,75.6013 13.35225,81.95948 3.23437,0.82249 8.14038,0.0498 12.27863,-1.93388 z m -142.01784,-1.82858 c 13.24391,-6.3652 22.09929,-29.51846 19.53768,-51.08315 -1.13254,-9.53414 -2.50607,-14.52378 -5.91512,-21.4878 -7.05318,-14.40829 -18.7973,-20.27915 -30.08237,-15.0381 l -4.05615,1.88377 1.02044,3.39067 c 1.33098,4.42253 1.30625,14.79904 -0.0462,19.353 -1.11902,3.76824 -3.86334,7.38205 -5.60589,7.38205 -2.1134,0 -4.24153,-2.71257 -5.82903,-7.42985 l -1.63799,-4.86727 -1.07922,3.82713 c -1.95257,6.92421 -2.63842,11.32169 -2.63842,16.91688 v 5.51943 l 2.67857,-0.23258 c 5.18027,-0.44982 10.17857,4.20571 10.17857,9.48055 0,4.47516 -4.68323,9.64285 -8.73886,9.64285 -0.69363,0 -1.26114,0.19371 -1.26114,0.43047 0,0.23675 1.26226,3.12405 2.80502,6.41621 4.26372,9.09854 11.0749,15.63225 18.26641,17.52228 3.26706,0.85864 8.72086,0.14345 12.40365,-1.62654 z"
         id="path938"
         inkscape:connector-curvature="0"
         transform="matrix(0.26458336,0,0,0.26458336,18.429764,24.611442)" />
      <path
         style="opacity:1;fill:#000000;fill-opacity:1;fill-rule:nonzero;stroke:none;stroke-width:0.2857143;stroke-linecap:butt;stroke-linejoin:miter;stroke-miterlimit:4;stroke-dasharray:none;stroke-opacity:1"
         d="m 331.37014,590.23823 c -8.27273,-2.22473 -18.72561,-7.50755 -18.72561,-9.46381 0,-0.65847 2.50447,-6.16509 5.56548,-12.23694 17.48062,-34.67464 34.81503,-41.99749 52.32116,-22.10286 4.07241,4.62804 12.75597,20.61915 15.64835,28.81702 l 2.03906,5.7793 -6.00131,3.51627 c -12.94516,7.58478 -34.73592,10.02369 -50.84713,5.69102 z"
         id="path960"
         inkscape:connector-curvature="0"
         transform="matrix(0.26458336,0,0,0.26458336,18.429764,24.611442)" />
      <path
         style="opacity:1;fill:#ff00ff;fill-opacity:1;fill-rule:nonzero;stroke:none;stroke-width:0.2857143;stroke-linecap:butt;stroke-linejoin:miter;stroke-miterlimit:4;stroke-dasharray:none;stroke-opacity:1"
         d="M 148.69928,358.25002 C 90.037943,335.42652 46.054458,268.13752 41.755923,194.64062 c -1.504771,-25.72876 3.543394,-51.3985 13.078321,-66.5028 4.680426,-7.41427 15.296309,-16.29118 21.82006,-18.24575 13.241327,-3.96719 32.126976,-0.7757 47.364266,8.00411 31.79579,18.32091 69.00067,58.1424 107.24024,114.78238 16.13565,23.89992 16.87005,25.29877 14.43772,27.5 -1.40947,1.27556 -3.15493,2.29367 -3.87877,2.26246 -0.72385,-0.0311 -7.2407,-8.87049 -14.4819,-19.64285 -41.06213,-61.08607 -84.90105,-105.54278 -116.0511,-117.6865 -9.32731,-3.63621 -28.01561,-5.26269 -30.549289,-2.65875 -1.286518,1.32219 -0.172474,1.49037 4.927343,0.74384 33.427886,-4.89328 88.917086,44.28595 145.085096,128.58672 l 8.56648,12.85714 -9.18503,7.14286 c -21.38387,16.62943 -44.56032,44.61341 -62.57514,75.55524 l -8.66173,14.8772 z"
         id="path978"
         inkscape:connector-curvature="0"
         transform="matrix(0.26458336,0,0,0.26458336,18.429764,24.611442)" />
      <path
         style="opacity:1;fill:#ff00ff;fill-opacity:1;fill-rule:nonzero;stroke:none;stroke-width:0.2857143;stroke-linecap:butt;stroke-linejoin:miter;stroke-miterlimit:4;stroke-dasharray:none;stroke-opacity:1"
         d="m 535.81225,353.39505 c -15.47846,-29.84573 -41.94961,-62.1871 -68.70559,-83.94174 l -6.25216,-5.08348 10.2536,-15.28274 c 43.14617,-64.30831 85.88756,-108.10324 118.99918,-121.93238 7.08418,-2.95873 11.30751,-3.74331 20.12371,-3.73846 7.60802,0.004 10.40422,-0.41562 8.789,-1.31955 -1.30289,-0.72913 -6.9668,-1.08963 -12.58646,-0.80109 -18.46763,0.94819 -40.2166,13.61576 -65.7412,38.29062 -23.73178,22.94172 -48.69493,53.67283 -70.91396,87.29928 -10.55007,15.96655 -11.02874,16.46025 -14.02831,14.46861 -1.70804,-1.13409 -3.10553,-2.7185 -3.10553,-3.52089 0,-0.8024 5.88026,-10.20612 13.06724,-20.89718 43.73349,-65.0561 82.53213,-105.5893 116.93276,-122.16039 11.72808,-5.64953 12.63176,-5.84933 26.45583,-5.84933 13.78904,0 14.58531,0.17464 21.7529,4.77073 13.02383,8.3513 22.19043,25.64109 26.22053,49.45644 2.2765,13.45263 0.77294,46.49328 -2.83635,62.32898 -14.77127,64.80875 -55.85425,116.70148 -106.06902,133.9779 l -7.81599,2.68908 z"
         id="path980"
         inkscape:connector-curvature="0"
         transform="matrix(0.26458336,0,0,0.26458336,18.429764,24.611442)" />
      <path
         style="opacity:1;fill:#c8beb7;fill-opacity:1;fill-rule:nonzero;stroke:none;stroke-width:0.2857143;stroke-linecap:butt;stroke-linejoin:miter;stroke-miterlimit:4;stroke-dasharray:none;stroke-opacity:1"
         d="m 304.91973,573.88471 c -5.16757,-5.71989 -11.13476,-16.3668 -14.46822,-25.81482 -2.07708,-5.88708 -1.15495,-7.0007 5.79698,-7.0007 1.85365,0 3.7915,-0.68156 4.30633,-1.51457 0.62302,-1.00806 -1.36564,-1.36637 -5.94657,-1.07143 l -6.88262,0.44314 -1.68913,-7.14285 c -2.92805,-12.38193 -3.07978,-12.11203 6.96517,-12.38943 l 8.92857,-0.24657 -9.28571,-0.82486 -9.28572,-0.82486 -0.96553,-6.42857 c -0.53105,-3.53571 -1.01319,-8.26611 -1.07143,-10.51201 -0.0949,-3.65923 0.26523,-3.99029 3.46652,-3.18682 6.72501,1.68787 17.1428,2.67376 16.07233,1.52102 -0.58825,-0.63347 -5.40202,-1.86239 -10.69727,-2.73095 l -9.62772,-1.57918 -2.47345,-11.92927 c -5.03681,-24.29217 -10.52846,-30.14005 -28.31235,-30.14887 -32.252,-0.016 -58.8447,-7.68452 -71.8914,-20.73122 -11.3933,-11.3933 -16.49498,-28.31876 -16.59271,-55.04836 l -0.0498,-13.63138 7.32411,-12.79719 C 217.67642,264.4405 294.5968,220.05108 374.0731,231.68539 c 59.26103,8.67506 113.02631,46.77458 149.89553,106.21999 13.69087,22.07424 14.39018,24.09064 14.39018,41.49277 0,19.30108 -1.6554,28.46904 -7.17974,39.76311 -5.23324,10.6989 -11.61611,16.53346 -24.88891,22.75086 -12.9917,6.08571 -27.63669,8.97089 -52.6082,10.3642 l -20.09599,1.12127 -4.5766,5.29434 c -4.74467,5.48878 -8.36826,15.97085 -10.04316,29.05222 l -0.9461,7.38923 -7.33065,0.9845 c -11.21975,1.50681 -13.33049,3.81624 -2.46919,2.70161 l 9.14719,-0.93871 -0.92047,7.66563 c -0.50628,4.2161 -0.92608,8.79064 -0.9329,10.16564 -0.01,2.05881 -1.46203,2.54663 -8.2267,2.76426 l -8.21429,0.26425 7.5,0.52469 c 8.4801,0.59326 8.59441,0.84594 5.95347,13.16021 l -1.54651,7.2112 -5.95349,-0.8277 c -4.43316,-0.61633 -5.40626,-0.439 -3.81061,0.69439 1.17857,0.83716 3.58928,1.53194 5.35714,1.54397 1.95874,0.0129 3.21429,0.89769 3.21429,2.26404 0,4.97507 -9.13276,23.72825 -14.35692,29.48043 -5.56478,6.12726 -5.5726,6.13032 -6.57986,2.56956 -2.00268,-7.0797 -11.85724,-25.1387 -16.98567,-31.12714 -17.96967,-20.98313 -36.99655,-13.56446 -54.84657,21.38492 l -7.06641,13.83565 z M 430.69334,412.61405 c 5.33333,-3.2521 11.02687,-10.4123 14.06902,-17.69319 2.03544,-4.87148 2.01991,-5.28024 -0.20046,-5.28024 -7.5475,0 -10.56117,-12.30036 -4.0577,-16.5616 1.97859,-1.29641 4.93241,-1.9865 6.6172,-1.54591 2.93114,0.76651 3.00963,0.47002 2.13067,-8.04833 -0.50191,-4.86429 -1.6484,-11.41559 -2.54774,-14.55845 l -1.63517,-5.71428 -1.3411,5 c -4.40152,16.4102 -13.25369,7.73687 -12.28877,-12.0405 l 0.49095,-10.06314 -5.22748,-1.72597 c -11.06176,-3.65228 -22.28127,3.43207 -29.19403,18.43401 -3.83237,8.31693 -4.13104,10.20986 -4.11986,26.10988 0.01,14.45688 0.51766,18.40098 3.23889,25.17259 3.31624,8.2523 11.17595,17.67786 16.55101,19.84841 5.1948,2.09775 12.84256,1.51558 17.51457,-1.33328 z M 285.9047,411.95382 c 20.38617,-8.74749 28.24741,-46.67395 15.20939,-73.37755 -2.50358,-5.12766 -6.44943,-10.51829 -9.27899,-12.6765 -5.76819,-4.39962 -15.3751,-5.83296 -20.5967,-3.07301 -3.37445,1.78361 -3.52666,2.41096 -3.09491,12.75638 0.33074,7.92509 -0.17036,12.08806 -1.84484,15.32614 -1.26441,2.44509 -2.82564,4.44563 -3.4694,4.44563 -1.92749,0 -5.43355,-4.71273 -6.90816,-9.28572 l -1.38198,-4.28571 -1.5798,7.14285 c -0.86889,3.92858 -1.97742,10.19643 -2.4634,13.92858 -0.88268,6.77869 -0.87917,6.78571 3.38597,6.78571 4.39945,0 10.19122,5.42356 10.19122,9.5433 0,2.26737 -5.54314,8.2568 -8.57773,9.26833 -4.88962,1.62987 7.7545,19.70316 16.43487,23.49174 5.54704,2.42102 8.35055,2.42299 13.97446,0.01 z"
         id="path990"
         inkscape:connector-curvature="0"
         transform="matrix(0.26458336,0,0,0.26458336,18.429764,24.611442)" />
    </g>
    <path
       style="fill:none;fill-rule:evenodd;stroke:#000000;stroke-width:0.26458332px;stroke-linecap:butt;stroke-linejoin:miter;stroke-opacity:1"
       d="m 60.742364,120.82853 c 23.8125,-47.624996 76.729166,-47.624996 100.541666,0 0.26727,13.22984 0,23.8125 -26.12862,23.85934 -11.22866,0.0201 0.9932,36.99483 -24.14221,36.99483 -25.13542,0 -13.55243,-36.97502 -24.743575,-36.99533 -25.527261,-0.0463 -25.527261,-10.62967 -25.527261,-23.85884 z"
       id="path4546"
       inkscape:connector-curvature="0"
       sodipodi:nodetypes="ccscsc" />
    <path
       style="fill:none;fill-rule:evenodd;stroke:#000000;stroke-width:0.26458332px;stroke-linecap:butt;stroke-linejoin:miter;stroke-opacity:1"
       d="m 100.44641,179.03687 c 11.51415,-28.55607 20.84053,-2.40072 21.16666,0"
       id="path4550"
       inkscape:connector-curvature="0"
       sodipodi:nodetypes="cc" />
    <g
       id="g4660"
       inkscape:label="Eyes"
       transform="translate(10.879739,-28.004796)">
      <g
         transform="translate(-2.0994449e-8,6.9490078)"
         id="g4589"
         inkscape:label="Left">
        <ellipse
           ry="12.053315"
           rx="7.4163914"
           cy="142.84663"
           cx="81.39093"
           id="path4554"
           style="display:inline;opacity:1;fill:#000000;fill-opacity:1;stroke:none;stroke-width:2.26004505;stroke-linecap:butt;stroke-linejoin:miter;stroke-miterlimit:4;stroke-dasharray:none;stroke-opacity:1" />
        <ellipse
           ry="6.1069059"
           rx="3.0601685"
           cy="146.25462"
           cx="83.477371"
           id="path4564"
           style="opacity:1;fill:#fffffa;fill-opacity:1;stroke:none;stroke-width:3.77329016;stroke-linecap:butt;stroke-linejoin:miter;stroke-miterlimit:4;stroke-dasharray:none;stroke-opacity:1" />
        <circle
           style="opacity:1;fill:#fffffa;fill-opacity:1;stroke:none;stroke-width:2;stroke-linecap:butt;stroke-linejoin:miter;stroke-miterlimit:4;stroke-dasharray:none;stroke-opacity:1"
           id="path4576"
           cx="74.858276"
           cy="145.86653"
           r="2.6458333" />
        <ellipse
           ry="4.6369243"
           rx="1.9776595"
           cy="135.16296"
           cx="76.889664"
           id="path4598"
           style="opacity:1;fill:#fffffa;fill-opacity:1;stroke:none;stroke-width:1.86901426;stroke-linecap:butt;stroke-linejoin:miter;stroke-miterlimit:4;stroke-dasharray:none;stroke-opacity:1" />
      </g>
      <g
         transform="matrix(-1,0,0,1,200.3084,7.4835467)"
         inkscape:label="Right"
         id="g4627">
        <ellipse
           style="display:inline;opacity:1;fill:#000000;fill-opacity:1;stroke:none;stroke-width:2.26004505;stroke-linecap:butt;stroke-linejoin:miter;stroke-miterlimit:4;stroke-dasharray:none;stroke-opacity:1"
           id="ellipse4619"
           cx="81.39093"
           cy="142.84663"
           rx="7.4163914"
           ry="12.053315" />
        <ellipse
           style="opacity:1;fill:#fffffa;fill-opacity:1;stroke:none;stroke-width:3.77329016;stroke-linecap:butt;stroke-linejoin:miter;stroke-miterlimit:4;stroke-dasharray:none;stroke-opacity:1"
           id="ellipse4621"
           cx="83.477371"
           cy="146.25462"
           rx="3.0601685"
           ry="6.1069059" />
        <circle
           r="2.6458333"
           cy="145.86653"
           cx="74.858276"
           id="circle4623"
           style="opacity:1;fill:#fffffa;fill-opacity:1;stroke:none;stroke-width:2;stroke-linecap:butt;stroke-linejoin:miter;stroke-miterlimit:4;stroke-dasharray:none;stroke-opacity:1" />
        <ellipse
           style="opacity:1;fill:#fffffa;fill-opacity:1;stroke:none;stroke-width:1.86901426;stroke-linecap:butt;stroke-linejoin:miter;stroke-miterlimit:4;stroke-dasharray:none;stroke-opacity:1"
           id="ellipse4625"
           cx="76.889664"
           cy="135.16296"
           rx="1.9776595"
           ry="4.6369243" />
      </g>
    </g>
    <g
       id="g4648"
       inkscape:label="Ear"
       transform="translate(10.492274,-28.004796)">
      <g
         id="g4673"
         inkscape:label="left">
        <path
           inkscape:label="Left"
           style="fill:none;fill-rule:evenodd;stroke:#000000;stroke-width:0.26458332px;stroke-linecap:butt;stroke-linejoin:miter;stroke-opacity:1"
           d="M 74.083333,121.05208 C 11.950325,22.648826 -0.94829705,133.46489 50.270834,148.83334"
           id="path4645"
           inkscape:connector-curvature="0"
           sodipodi:nodetypes="cc" />
        <path
           sodipodi:nodetypes="cc"
           inkscape:connector-curvature="0"
           id="path4664"
           d="M 71.4375,122.375 C 42.333333,77.395836 29.104167,85.333336 29.104167,85.333336"
           style="fill:none;fill-rule:evenodd;stroke:#000000;stroke-width:0.26458332px;stroke-linecap:butt;stroke-linejoin:miter;stroke-opacity:1" />
      </g>
      <g
         inkscape:label="Right"
         id="g4681"
         transform="matrix(-1,0,0,1,201.08333,-2.6666666e-6)">
        <path
           sodipodi:nodetypes="cc"
           inkscape:connector-curvature="0"
           id="path4677"
           d="M 74.083333,121.05208 C 11.950325,22.648826 -0.94829705,133.46489 50.270834,148.83334"
           style="fill:none;fill-rule:evenodd;stroke:#000000;stroke-width:0.26458332px;stroke-linecap:butt;stroke-linejoin:miter;stroke-opacity:1"
           inkscape:label="path" />
        <path
           style="fill:none;fill-rule:evenodd;stroke:#000000;stroke-width:0.26458332px;stroke-linecap:butt;stroke-linejoin:miter;stroke-opacity:1"
           d="M 71.4375,122.375 C 42.333333,77.395836 29.104167,85.333336 29.104167,85.333336"
           id="path4679"
           inkscape:connector-curvature="0"
           sodipodi:nodetypes="cc" />
      </g>
    </g>
    <g
       id="g4701">
      <path
         inkscape:connector-curvature="0"
         id="path4692"
         d="m 124.44524,156.63859 63.50001,-10.58333"
         style="fill:none;fill-rule:evenodd;stroke:#000000;stroke-width:0.26458335px;stroke-linecap:butt;stroke-linejoin:miter;stroke-opacity:1" />
      <path
         inkscape:connector-curvature="0"
         id="path4694"
         d="m 124.44524,161.93026 h 63.50001"
         style="fill:none;fill-rule:evenodd;stroke:#000000;stroke-width:0.26458335px;stroke-linecap:butt;stroke-linejoin:miter;stroke-opacity:1" />
      <path
         inkscape:connector-curvature="0"
         id="path4696"
         d="m 124.44524,167.22193 63.50001,10.58333"
         style="fill:none;fill-rule:evenodd;stroke:#000000;stroke-width:0.26458335px;stroke-linecap:butt;stroke-linejoin:miter;stroke-opacity:1" />
    </g>
    <g
       id="g4709"
       transform="matrix(-1,0,0,1,222.43214,-6.9227181e-7)">
      <path
         style="fill:none;fill-rule:evenodd;stroke:#000000;stroke-width:0.26458335px;stroke-linecap:butt;stroke-linejoin:miter;stroke-opacity:1"
         d="m 124.44524,156.63859 63.50001,-10.58333"
         id="path4703"
         inkscape:connector-curvature="0" />
      <path
         style="fill:none;fill-rule:evenodd;stroke:#000000;stroke-width:0.26458335px;stroke-linecap:butt;stroke-linejoin:miter;stroke-opacity:1"
         d="m 124.44524,161.93026 h 63.50001"
         id="path4705"
         inkscape:connector-curvature="0" />
      <path
         style="fill:none;fill-rule:evenodd;stroke:#000000;stroke-width:0.26458335px;stroke-linecap:butt;stroke-linejoin:miter;stroke-opacity:1"
         d="m 124.44524,167.22193 63.50001,10.58333"
         id="path4707"
         inkscape:connector-curvature="0" />
    </g>
  </g>
</svg>
